<svg width="240" height="240" viewBox="0 0 240 240" xmlns="http://www.w3.org/2000/svg"><rect x="100" y="30" width="10" height="10" fill="#080808" /><rect x="110" y="30" width="10" height="10" fill="#080808" /><rect x="120" y="30" width="10" height="10" fill="#080808" /><rect x="130" y="30" width="10" height="10" fill="#080808" /><rect x="140" y="30" width="10" height="10" fill="#080808" /><rect x="90" y="40" width="10" height="10" fill="#080808" /><rect x="100" y="40" width="10" height="10" fill="#080808" /><rect x="110" y="40" width="10" height="10" fill="#080808" /><rect x="140" y="40" width="10" height="10" fill="#080808" /><rect x="150" y="40" width="10" height="10" fill="#080808" /><rect x="160" y="40" width="10" height="10" fill="#080808" /><rect x="170" y="40" width="10" height="10" fill="#080808" /><rect x="90" y="50" width="10" height="10" fill="#080808" /><rect x="160" y="50" width="10" height="10" fill="#080808" /><rect x="170" y="50" width="10" height="10" fill="#080808" /><rect x="180" y="50" width="10" height="10" fill="#080808" /><rect x="80" y="60" width="10" height="10" fill="#080808" /><rect x="90" y="60" width="10" height="10" fill="#080808" /><rect x="110" y="60" width="10" height="10" fill="#080808" /><rect x="120" y="60" width="10" height="10" fill="#080808" /><rect x="170" y="60" width="10" height="10" fill="#080808" /><rect x="180" y="60" width="10" height="10" fill="#080808" /><rect x="80" y="70" width="10" height="10" fill="#080808" /><rect x="90" y="70" width="10" height="10" fill="#080808" /><rect x="110" y="70" width="10" height="10" fill="#080808" /><rect x="180" y="70" width="10" height="10" fill="#080808" /><rect x="80" y="80" width="10" height="10" fill="#080808" /><rect x="90" y="80" width="10" height="10" fill="#080808" /><rect x="180" y="80" width="10" height="10" fill="#080808" /><rect x="80" y="90" width="10" height="10" fill="#080808" /><rect x="90" y="90" width="10" height="10" fill="#080808" /><rect x="180" y="90" width="10" height="10" fill="#080808" /><rect x="90" y="100" width="10" height="10" fill="#080808" /><rect x="170" y="100" width="10" height="10" fill="#080808" /><rect x="180" y="100" width="10" height="10" fill="#080808" /><rect x="90" y="110" width="10" height="10" fill="#080808" /><rect x="100" y="110" width="10" height="10" fill="#080808" /><rect x="110" y="110" width="10" height="10" fill="#080808" /><rect x="160" y="110" width="10" height="10" fill="#080808" /><rect x="170" y="110" width="10" height="10" fill="#080808" /><rect x="80" y="120" width="10" height="10" fill="#080808" /><rect x="90" y="120" width="10" height="10" fill="#080808" /><rect x="100" y="120" width="10" height="10" fill="#080808" /><rect x="110" y="120" width="10" height="10" fill="#080808" /><rect x="120" y="120" width="10" height="10" fill="#080808" /><rect x="130" y="120" width="10" height="10" fill="#080808" /><rect x="140" y="120" width="10" height="10" fill="#080808" /><rect x="150" y="120" width="10" height="10" fill="#080808" /><rect x="160" y="120" width="10" height="10" fill="#080808" /><rect x="70" y="130" width="10" height="10" fill="#080808" /><rect x="80" y="130" width="10" height="10" fill="#080808" /><rect x="90" y="130" width="10" height="10" fill="#080808" /><rect x="110" y="130" width="10" height="10" fill="#080808" /><rect x="120" y="130" width="10" height="10" fill="#080808" /><rect x="130" y="130" width="10" height="10" fill="#080808" /><rect x="140" y="130" width="10" height="10" fill="#080808" /><rect x="150" y="130" width="10" height="10" fill="#080808" /><rect x="60" y="140" width="10" height="10" fill="#080808" /><rect x="70" y="140" width="10" height="10" fill="#080808" /><rect x="80" y="140" width="10" height="10" fill="#080808" /><rect x="50" y="150" width="10" height="10" fill="#080808" /><rect x="60" y="150" width="10" height="10" fill="#080808" /><rect x="70" y="150" width="10" height="10" fill="#080808" /><rect x="40" y="160" width="10" height="10" fill="#080808" /><rect x="50" y="160" width="10" height="10" fill="#080808" /><rect x="60" y="160" width="10" height="10" fill="#080808" /><rect x="30" y="170" width="10" height="10" fill="#080808" /><rect x="40" y="170" width="10" height="10" fill="#080808" /><rect x="50" y="170" width="10" height="10" fill="#080808" /><rect x="30" y="180" width="10" height="10" fill="#080808" /><rect x="40" y="180" width="10" height="10" fill="#080808" /><rect x="30" y="190" width="10" height="10" fill="#080808" /><rect x="40" y="190" width="10" height="10" fill="#080808" /></svg>